<?xml version="1.0" encoding="UTF-8"?>
<!DOCTYPE svg PUBLIC "-//W3C//DTD SVG 1.1//EN" "http://www.w3.org/Graphics/SVG/1.1/DTD/svg11.dtd">
<!-- Creator: CorelDRAW -->
<svg xmlns="http://www.w3.org/2000/svg" xml:space="preserve" width="200px" height="200px" style="shape-rendering:geometricPrecision; text-rendering:geometricPrecision; image-rendering:optimizeQuality; fill-rule:evenodd; clip-rule:evenodd"
viewBox="0 0 200 200"
 xmlns:xlink="http://www.w3.org/1999/xlink">
 <defs>
  <style type="text/css">
   <![CDATA[
    .str0 {stroke:white;stroke-width:6.00005;stroke-linecap:round;stroke-linejoin:round}
    .fil0 {fill:none}
   ]]>
  </style>
 </defs>
 <g id="Warstwa_x0020_1">
  <metadata id="CorelCorpID_0Corel-Layer"/>
  <path class="fil0 str0" d="M108.89 114.302l18.3001 -9.60008c4.50004,-2.40002 12.9001,-5.70004 12.9001,2.70002l3.00002 -2.10002c8.70007,-6.00005 15.3001,-1.80001 12.0001,6.60005 15.6001,-11.4001 21.0002,3.00002 14.1001,6.30005l-34.2003 21.6002 -14.4001 9.30007c-10.2001,6.60005 -23.7002,6.60005 -27.6002,4.20003 -21.6002,-5.40004 -27.9002,-10.8001 -46.8004,-8.40007m-9.00007 -38.4003l22.2002 -9.30007c5.70004,-2.10002 12.3001,-1.50001 14.7001,0.300002 3.90003,3.00002 8.10006,6.00005 12.0001,9.00007 16.8001,12.3001 18.3001,9.30007 38.1003,10.5001 4.20003,0.300002 7.20006,7.20006 0,9.90008 -18.6001,8.70007 -30.0002,4.80004 -46.8004,-3.90003"/>
  <line class="fil0 str0" x1="104.69" y1="30.0014" x2="104.69" y2= "37.5015" />
  <line class="fil0 str0" x1="104.69" y1="71.4017" x2="104.69" y2= "79.2018" />
  <path class="fil0 str0" d="M104.69 18.3013c19.8002,0 36.0003,16.2001 36.0003,36.3003 0,19.8002 -16.2001,36.0003 -36.0003,36.0003 -19.8002,0 -36.0003,-16.2001 -36.0003,-36.0003 0,-20.1002 16.2001,-36.3003 36.0003,-36.3003z"/>
  <path class="fil0 str0" d="M115.79 41.7015c-3.30003,-1.20001 -6.60005,-2.40002 -9.90008,-2.70002 -17.4001,-2.10002 -19.5002,15.6001 -1.20001,15.6001 18.0001,0 16.5001,17.4001 -0.900007,15.3001 -3.30003,-0.300002 -6.60005,-1.50001 -10.2001,-2.40002"/>
 </g>
</svg>
