<?xml version="1.0" encoding="UTF-8"?>
<!DOCTYPE svg PUBLIC "-//W3C//DTD SVG 1.1//EN" "http://www.w3.org/Graphics/SVG/1.1/DTD/svg11.dtd">
<!-- Creator: CorelDRAW -->
<svg xmlns="http://www.w3.org/2000/svg" xml:space="preserve" width="200px" height="200px" style="shape-rendering:geometricPrecision; text-rendering:geometricPrecision; image-rendering:optimizeQuality; fill-rule:evenodd; clip-rule:evenodd"
viewBox="0 0 200 200"
 xmlns:xlink="http://www.w3.org/1999/xlink">
 <defs>
  <style type="text/css">
   <![CDATA[
    .str0 {stroke:#4D515C;stroke-width:6.00005;stroke-linecap:round;stroke-linejoin:round}
    .fil0 {fill:none}
   ]]>
  </style>
 </defs>
 <g id="Warstwa_x0020_1">
  <metadata id="CorelCorpID_0Corel-Layer"/>
  <path class="fil0 str0" d="M110.86 38.868c3.90003,0.900007 7.80006,1.80001 11.4001,3.30003 3.60003,1.20001 7.20006,3.00002 10.2001,5.10004 3.30003,1.80001 6.60005,4.20003 9.30007,6.60005 3.00002,2.70002 5.40004,5.40004 7.80006,8.40007 2.40002,3.00002 4.50004,6.30005 6.30005,9.60008 1.80001,3.30003 3.30003,6.90005 4.50004,10.5001 1.20001,3.90003 2.10002,7.50006 2.40002,11.4001"/>
  <path class="fil0 str0" d="M84.4601 164.569c-3.90003,-0.600005 -7.80006,-1.80001 -11.4001,-3.00002 -3.60003,-1.50001 -7.20006,-3.30003 -10.5001,-5.10004 -3.30003,-2.10002 -6.30005,-4.20003 -9.00007,-6.90005 -3.00002,-2.40002 -5.70004,-5.40004 -7.80006,-8.40007 -2.40002,-3.00002 -4.50004,-6.00005 -6.30005,-9.30007 -1.80001,-3.60003 -3.30003,-7.20006 -4.50004,-10.8001 -1.20001,-3.60003 -2.10002,-7.50006 -2.70002,-11.4001"/>
  <polyline class="fil0 str0" points="77.2601,150.169 86.8601,163.969 73.06,173.569 "/>
  <polyline class="fil0 str0" points="118.06,53.5681 108.46,39.468 122.26,30.168 "/>
  <path class="fil0 str0" d="M66.76 34.368c19.8002,0 36.0003,16.2001 36.0003,36.3003 0,19.8002 -16.2001,36.0003 -36.0003,36.0003 -20.1002,0 -36.0003,-16.2001 -36.0003,-36.0003 0,-20.1002 15.9001,-36.3003 36.0003,-36.3003z"/>
  <line class="fil0 str0" x1="46.9598" y1="64.6682" x2="74.86" y2= "64.6682" />
  <line class="fil0 str0" x1="45.1598" y1="76.6683" x2="72.76" y2= "76.6683" />
  <path class="fil0 str0" d="M81.1601 84.1684c-1.20001,1.80001 -3.00002,3.30003 -4.80004,4.20003 -2.10002,1.20001 -4.20003,1.50001 -6.30005,1.50001 -2.10002,0 -4.20003,-0.300002 -6.30005,-1.50001 -1.80001,-0.900007 -3.60003,-2.40002 -4.80004,-4.20003 -1.50001,-1.50001 -2.70002,-3.60003 -3.60003,-6.00005 -0.600005,-2.40002 -1.20001,-4.80004 -1.20001,-7.50006 0,-2.70002 0.600005,-5.40004 1.20001,-7.50006 0.900007,-2.40002 2.10002,-4.50004 3.60003,-6.30005 1.20001,-1.80001 3.00002,-3.30003 4.80004,-4.20003 2.10002,-0.900007 4.20003,-1.50001 6.30005,-1.50001 2.10002,0 4.20003,0.600005 6.30005,1.50001 1.80001,0.900007 3.60003,2.40002 4.80004,4.20003"/>
  <line class="fil0 str0" x1="128.56" y1="108.469" x2="128.56" y2= "115.969" />
  <line class="fil0 str0" x1="128.56" y1="149.869" x2="128.56" y2= "157.669" />
  <path class="fil0 str0" d="M128.56 96.7685c19.8002,0 36.0003,16.2001 36.0003,36.3003 0,19.8002 -16.2001,36.0003 -36.0003,36.0003 -20.1002,0 -36.0003,-16.2001 -36.0003,-36.0003 0,-20.1002 15.9001,-36.3003 36.0003,-36.3003z"/>
  <path class="fil0 str0" d="M139.661 120.169c-3.60003,-1.20001 -6.60005,-2.40002 -9.90008,-2.70002 -17.4001,-2.10002 -19.8002,15.6001 -1.20001,15.6001 18.0001,-0.300002 16.5001,17.4001 -1.20001,15.3001 -3.00002,-0.300002 -6.30005,-1.50001 -9.90008,-2.40002"/>
 </g>
</svg>
