<?xml version="1.0" encoding="UTF-8"?>
<!DOCTYPE svg PUBLIC "-//W3C//DTD SVG 1.1//EN" "http://www.w3.org/Graphics/SVG/1.1/DTD/svg11.dtd">
<!-- Creator: CorelDRAW -->
<svg xmlns="http://www.w3.org/2000/svg" xml:space="preserve" width="16.9332mm" height="16.9332mm" style="shape-rendering:geometricPrecision; text-rendering:geometricPrecision; image-rendering:optimizeQuality; fill-rule:evenodd; clip-rule:evenodd"
viewBox="0 0 16.9332 16.9332"
 xmlns:xlink="http://www.w3.org/1999/xlink">
 <defs>
  <style type="text/css">
   <![CDATA[
    .str0 {stroke:white;stroke-width:0.508;stroke-linecap:round;stroke-linejoin:round}
    .fil0 {fill:none}
   ]]>
  </style>
 </defs>
 <g id="Warstwa_x0020_1">
  <metadata id="CorelCorpID_0Corel-Layer"/>
  <path class="fil0 str0" d="M4.0249 5.9754l4.0386 -1.4732m1.4224 -0.5334l4.0894 -1.4732"/>
  <line class="fil0 str0" x1="8.8001" y1="14.2304" x2="8.8001" y2= "5.0102" />
  <line class="fil0 str0" x1="5.9045" y1="14.2304" x2="11.6703" y2= "14.2304" />
  <path class="fil0 str0" d="M8.8001 3.5878c0.381,0 0.7112,0.3048 0.7112,0.7112 0,0.381 -0.3302,0.7112 -0.7112,0.7112 -0.4064,0 -0.7112,-0.3302 -0.7112,-0.7112 0,-0.4064 0.3048,-0.7112 0.7112,-0.7112z"/>
  <line class="fil0 str0" x1="3.1105" y1="11.3094" x2="7.2761" y2= "11.3094" />
  <path class="fil0 str0" d="M3.2375 11.7158c0.381,0.762 1.0922,1.2954 1.9558,1.2954 0.8636,0 1.5748,-0.508 1.9558,-1.27 0.1524,-0.2794 0.1524,-0.4572 0.0508,-0.7874l-1.7018 -4.445c-0.0254,-0.0762 -0.0762,-0.127 -0.1524,-0.1524 -0.1524,-0.0508 -0.2794,0 -0.3302,0.1524l0 0c-0.6096,1.7526 -1.2192,2.7178 -1.8288,4.4704 -0.1016,0.3048 -0.1016,0.4826 0.0508,0.7366z"/>
  <line class="fil0 str0" x1="10.3241" y1="8.7186" x2="14.4643" y2= "8.7186" />
  <path class="fil0 str0" d="M10.4257 9.1504c0.381,0.7366 1.1176,1.27 1.9558,1.27 0.8636,0 1.5748,-0.508 1.9812,-1.2446 0.1524,-0.3048 0.1524,-0.4572 0.0254,-0.8128l-1.7018 -4.4196c-0.0254,-0.0762 -0.0762,-0.1524 -0.1524,-0.1778 -0.127,-0.0508 -0.2794,0.0254 -0.3302,0.1524l0 0c-0.6096,1.7526 -1.2192,2.7432 -1.8034,4.4958 -0.1016,0.2794 -0.1016,0.4572 0.0254,0.7366z"/>
 </g>
</svg>
