<?xml version="1.0" encoding="UTF-8"?>
<!DOCTYPE svg PUBLIC "-//W3C//DTD SVG 1.1//EN" "http://www.w3.org/Graphics/SVG/1.1/DTD/svg11.dtd">
<!-- Creator: CorelDRAW -->
<svg xmlns="http://www.w3.org/2000/svg" xml:space="preserve" width="200px" height="200px" style="shape-rendering:geometricPrecision; text-rendering:geometricPrecision; image-rendering:optimizeQuality; fill-rule:evenodd; clip-rule:evenodd"
viewBox="0 0 200 200"
 xmlns:xlink="http://www.w3.org/1999/xlink">
 <defs>
  <style type="text/css">
   <![CDATA[
    .str1 {stroke:#4D515C;stroke-width:6.00005}
    .str0 {stroke:#4D515C;stroke-width:6.00005;stroke-linecap:round;stroke-linejoin:round}
    .fil0 {fill:none}
    .fil1 {fill:#131516}
   ]]>
  </style>
 </defs>
 <g id="Warstwa_x0020_1">
  <metadata id="CorelCorpID_0Corel-Layer"/>
  <path class="fil0 str0" d="M100.446 144.729c3.90003,0 6.90005,3.30003 6.90005,6.90005 0,3.90003 -3.00002,6.90005 -6.90005,6.90005 -3.60003,0 -6.90005,-3.00002 -6.90005,-6.90005 0,-3.60003 3.30003,-6.90005 6.90005,-6.90005z"/>
  <path class="fil0 str0" d="M38.646 134.829l123.601 0c3.60003,0 6.90005,3.00002 6.90005,6.60005l0 20.4002c0,3.90003 -3.30003,6.90005 -6.90005,6.90005l-123.601 0c-3.60003,0 -6.60005,-3.00002 -6.60005,-6.90005l0 -20.4002c0,-3.60003 3.00002,-6.60005 6.60005,-6.60005z"/>
  <path class="fil1 str1" d="M52.4461 115.628c-1.20001,0.900007 -1.20001,3.00002 0,3.90003 1.20001,1.20001 3.00002,1.20001 4.20003,0 1.20001,-0.900007 1.20001,-3.00002 0,-3.90003 -1.20001,-1.20001 -3.00002,-1.20001 -4.20003,0z"/>
  <path class="fil1 str1" d="M74.9463 115.628c-0.900007,0.900007 -0.900007,3.00002 0,3.90003 1.20001,1.20001 3.00002,1.20001 4.20003,0 1.20001,-0.900007 1.20001,-3.00002 0,-3.90003 -1.20001,-1.20001 -3.00002,-1.20001 -4.20003,0z"/>
  <path class="fil1 str1" d="M98.0464 115.628c-1.20001,0.900007 -1.20001,3.00002 0,3.90003 1.20001,1.20001 3.00002,1.20001 4.20003,0 0.900007,-0.900007 0.900007,-3.00002 0,-3.90003 -1.20001,-1.20001 -3.00002,-1.20001 -4.20003,0z"/>
  <path class="fil1 str1" d="M121.147 115.628c-1.20001,0.900007 -1.20001,3.00002 0,3.90003 0.900007,1.20001 2.70002,1.20001 3.90003,0 1.20001,-0.900007 1.20001,-3.00002 0,-3.90003 -1.20001,-1.20001 -3.00002,-1.20001 -3.90003,0z"/>
  <path class="fil1 str1" d="M143.947 115.628c-1.20001,0.900007 -1.20001,3.00002 0,3.90003 1.20001,1.20001 3.00002,1.20001 4.20003,0 0.900007,-0.900007 0.900007,-3.00002 0,-3.90003 -1.20001,-1.20001 -3.00002,-1.20001 -4.20003,0z"/>
  <path class="fil1 str1" d="M52.4461 96.4283c-1.20001,1.20001 -1.20001,3.00002 0,4.20003 1.20001,0.900007 3.00002,0.900007 4.20003,0 1.20001,-1.20001 1.20001,-3.00002 0,-4.20003 -1.20001,-1.20001 -3.00002,-1.20001 -4.20003,0z"/>
  <path class="fil1 str1" d="M74.9463 96.4283c-0.900007,1.20001 -0.900007,3.00002 0,4.20003 1.20001,0.900007 3.00002,0.900007 4.20003,0 1.20001,-1.20001 1.20001,-3.00002 0,-4.20003 -1.20001,-1.20001 -3.00002,-1.20001 -4.20003,0z"/>
  <path class="fil1 str1" d="M98.0464 96.4283c-1.20001,1.20001 -1.20001,3.00002 0,4.20003 1.20001,0.900007 3.00002,0.900007 4.20003,0 0.900007,-1.20001 0.900007,-3.00002 0,-4.20003 -1.20001,-1.20001 -3.00002,-1.20001 -4.20003,0z"/>
  <path class="fil1 str1" d="M121.147 96.4283c-1.20001,1.20001 -1.20001,3.00002 0,4.20003 0.900007,0.900007 2.70002,0.900007 3.90003,0 1.20001,-1.20001 1.20001,-3.00002 0,-4.20003 -1.20001,-1.20001 -3.00002,-1.20001 -3.90003,0z"/>
  <path class="fil1 str1" d="M143.947 96.4283c-1.20001,1.20001 -1.20001,3.00002 0,4.20003 1.20001,0.900007 3.00002,0.900007 4.20003,0 0.900007,-1.20001 0.900007,-3.00002 0,-4.20003 -1.20001,-1.20001 -3.00002,-1.20001 -4.20003,0z"/>
  <path class="fil0 str0" d="M46.746 76.6282c0,1.80001 1.50001,3.30003 3.30003,3.30003l36.3003 0c1.80001,0 3.30003,-1.50001 3.30003,-3.30003 0,-14.1001 -0.300002,-27.9002 -0.300002,-42.0003l-5.10004 -3.90003 -8.40007 4.80004c-1.20001,0.900007 -2.70002,0.900007 -3.90003,0l0 0 -7.50006 -4.80004 -7.50006 4.80004c-1.20001,0.600005 -2.40002,0.900007 -3.90003,0.300002l0 0 -6.00005 -3.30003c0,15.0001 -0.300002,29.4002 -0.300002,44.1003z"/>
  <path class="fil0 str0" d="M106.147 65.5281l44.7004 0c1.80001,0 3.30003,1.50001 3.30003,3.30003l0 7.20006c0,1.80001 -1.50001,3.30003 -3.30003,3.30003l-44.7004 0c-1.80001,0 -3.30003,-1.50001 -3.30003,-3.30003l0 -7.20006c0,-1.80001 1.50001,-3.30003 3.30003,-3.30003z"/>
  <path class="fil0 str0" d="M90.2464 52.628l72.0006 0c3.60003,0 6.90005,3.00002 6.90005,6.90005l0 68.1005c0,3.60003 -3.30003,7.20006 -6.90005,7.20006m-123.601 0c-3.60003,0 -6.60005,-3.60003 -6.60005,-7.20006l0 -68.1005c0,-3.30003 0.300002,-6.90005 5.70004,-6.90005l6.30005 0"/>
 </g>
</svg>
